<?xml version="1.0" encoding="UTF-8"?>
<svg width="554px" height="129px" viewBox="0 0 554 129" version="1.1" xmlns="http://www.w3.org/2000/svg" xmlns:xlink="http://www.w3.org/1999/xlink">
    <!-- Generator: Sketch 53.2 (72643) - https://sketchapp.com -->
    <title>logo</title>
    <desc>Created with Sketch.</desc>
    <g id="Page-1" stroke="none" stroke-width="1" fill="none" fill-rule="evenodd">
        <g id="logo" transform="translate(-2.000000, -2.000000)">
            <g id="mark" transform="translate(67.000000, 66.500000) rotate(45.000000) translate(-67.000000, -66.500000) translate(20.000000, 20.000000)" fill-rule="nonzero">
                <path d="M4.29429897,5.78522516e-12 L24.8557445,5.78492567e-12 C26.1206383,5.78469628e-12 27.1460373,1.01228557 27.1460373,2.26100311 L27.1460373,24.5119163 C27.1460373,25.7606338 26.1206383,26.7729194 24.8557445,26.7729194 L2.29029278,26.7729194 C1.025399,26.7729194 -3.35360681e-12,25.7606338 -3.35376171e-12,24.5119163 L-3.35345834e-12,4.23938083 C-3.35374878e-12,1.89803545 1.92262313,5.78505628e-12 4.29429897,5.78522516e-12 Z" id="Rectangle-3" fill="#12B29F"></path>
                <path d="M2.29029278,32.9825581 L24.8557445,32.9825581 C26.1206383,32.9825581 27.1460373,33.9948437 27.1460373,35.2435612 L27.1460373,90.4674383 C27.1460373,91.7161558 26.1206383,92.7284416 24.8557445,92.7284416 L4.29429897,92.7284416 C1.92262313,92.7284416 5.12791333e-13,90.830406 5.12500887e-13,88.4890604 L5.1159077e-13,35.2435612 C5.11435865e-13,33.9948437 1.025399,32.9825581 2.29029278,32.9825581 Z" id="Rectangle-3" fill="#234858"></path>
                <path d="M69.043916,1.91846539e-12 L89.6053613,1.91906437e-12 C91.9770372,1.91863428e-12 93.8996603,1.89803545 93.8996603,4.23938083 L93.8996603,57.4848799 C93.8996603,58.7335977 92.8742614,59.7458832 91.6093678,59.7458832 L69.043916,59.7458832 C67.7790221,59.7458832 66.7536232,58.7335977 66.7536232,57.4848799 L66.7536232,2.26100311 C66.7536232,1.01228557 67.7790221,1.91929376e-12 69.043916,1.91846539e-12 Z" id="Rectangle-3" fill="#234858"></path>
                <path d="M69.043916,65.9651163 L91.6093678,65.9651163 C92.8742614,65.9651163 93.8996603,66.9774018 93.8996603,68.226119 L93.8996603,88.4986546 C93.8996603,90.8399998 91.9770372,92.7380358 89.6053613,92.7380358 L69.043916,92.7380358 C67.7790221,92.7380358 66.7536232,91.72575 66.7536232,90.4770325 L66.7536232,68.226119 C66.7536232,66.9774018 67.7790221,65.9651163 69.043916,65.9651163 Z" id="Rectangle-3" fill="#12B29F"></path>
                <path d="M35.7227808,7.720117e-12 L58.2882325,7.71981751e-12 C59.5531262,7.72180629e-12 60.5785253,1.01228557 60.5785253,2.26100311 L60.5785253,24.5119163 C60.5785253,25.7606338 59.5531262,26.7729194 58.2882325,26.7729194 L35.7227808,26.7729194 C34.4578868,26.7729194 33.4324879,25.7606338 33.4324879,24.5119163 L33.4324879,2.26100311 C33.4324879,1.01228557 34.4578868,7.71914842e-12 35.7227808,7.720117e-12 Z" id="Rectangle-3" fill="#234858"></path>
                <path d="M35.8033363,32.9825581 L58.368788,32.9825581 C59.6336817,32.9825581 60.6590806,33.9948437 60.6590806,35.2435612 L60.6590806,57.4944743 C60.6590806,58.7431918 59.6336817,59.7554776 58.368788,59.7554776 L35.8033363,59.7554776 C34.5384426,59.7554776 33.5130435,58.7431918 33.5130435,57.4944743 L33.5130435,35.2435612 C33.5130435,33.9948437 34.5384426,32.9825581 35.8033363,32.9825581 Z" id="Rectangle-3" fill="#12B29F"></path>
                <path d="M35.7227808,65.945928 L58.2882325,65.945928 C59.5531262,65.945928 60.5785253,66.9582133 60.5785253,68.2069308 L60.5785253,90.4578442 C60.5785253,91.7065617 59.5531262,92.7188472 58.2882325,92.7188472 L35.7227808,92.7188472 C34.4578868,92.7188472 33.4324879,91.7065617 33.4324879,90.4578442 L33.4324879,68.2069308 C33.4324879,66.9582133 34.4578868,65.945928 35.7227808,65.945928 Z" id="Rectangle-3" fill="#234858"></path>
            </g>
            <g id="combined-horizontal-color-onBright" transform="translate(168.000000, 11.000000)" fill-rule="nonzero">
                <g id="logo">
                    <path d="M124.346719,77.1049368 L131.524727,77.1049368 L131.524727,46.2724418 C128.705887,44.83886 125.774168,44.1216805 122.732705,44.1216805 C118.170512,44.1216805 114.526243,45.5373909 111.799118,48.3688121 C109.072776,51.2010098 107.708821,54.9135592 107.708821,59.5103443 C107.708821,70.5788379 113.254787,77.1049368 124.346719,77.1049368 M131.524727,36.1239267 L131.524727,0 L145.158005,0 L145.158005,87.4748995 L121.119476,87.4748995 C112.808758,87.4748995 106.15987,85.1026907 101.171244,80.3590507 C96.1810503,75.6161876 93.6867374,68.1522388 93.6867374,59.9516855 C93.6867374,55.0977102 94.846099,50.6850759 97.1648225,46.7145597 C99.4819779,42.7424895 102.673946,39.6266834 106.735239,37.3648102 C110.797316,35.1037138 115.184704,33.9723887 119.895052,33.9723887 C123.530698,33.9723887 127.406995,34.6895682 131.524727,36.1239267" id="Fill-1" fill="#234858"></path>
                    <path d="M38.9323999,55.8934487 C38.9323999,54.2670699 38.7016202,52.7106597 38.2400605,51.2257727 C37.7792806,49.7408862 37.0526359,48.4332527 36.0601266,47.301318 C35.0668378,46.1709383 33.8084641,45.2698996 32.2850055,44.5974246 C30.758428,43.9249495 28.9683252,43.5891009 26.9123577,43.5891009 C23.08266,43.5891009 19.8384883,44.7389166 17.1790628,47.0362153 C14.5196372,49.3350688 13.0468565,52.2869616 12.764619,55.8934487 L38.9323999,55.8934487 Z M51.6970191,61.6207583 L51.6970191,63.3186603 C51.6970191,63.8838502 51.6603749,64.4498177 51.5902053,65.0142301 L12.764619,65.0142301 C12.9057378,66.8544013 13.3836703,68.5336452 14.199976,70.0535162 C15.0147223,71.5749422 16.0968925,72.883353 17.4449274,73.977971 C18.7906232,75.0749215 20.3164209,75.9401984 22.0192017,76.5761345 C23.7212029,77.2128476 25.4933736,77.5308158 27.3380528,77.5308158 C30.5292077,77.5308158 33.223718,76.9477449 35.4223637,75.7808259 C37.6186702,74.6139071 39.427485,73.0069639 40.8472489,70.9545548 L49.3572547,77.7430533 C44.320641,84.5323293 37.0175512,87.9258011 27.4440868,87.9258011 C23.4717113,87.9258011 19.8197765,87.3061911 16.487503,86.0693037 C13.1544498,84.8339712 10.2642444,83.0839815 7.81844611,80.8193345 C5.3710885,78.5570201 3.45701935,75.7808259 2.07389974,72.4930843 C0.690780139,69.2045651 0,65.4760221 0,61.3027904 C0,57.2026368 0.690780139,53.4717615 2.07389974,50.1117189 C3.45701935,46.7547863 5.35315626,43.8907428 7.76386979,41.5211431 C10.175363,39.1523212 13.029704,37.3144821 16.3276724,36.0052939 C19.6248611,34.6976608 23.1894738,34.0430665 27.0191713,34.0430665 C30.5642922,34.0430665 33.8435491,34.6269147 36.8585002,35.7930561 C39.8711125,36.9599752 42.4783007,38.6936388 44.6761666,40.9909375 C46.8740326,43.2890139 48.5939658,46.1530574 49.8351872,49.5815133 C51.074849,53.0130789 51.6970191,57.0246058 51.6970191,61.6207583 Z" id="Fill-3" fill="#234858"></path>
                    <path d="M172.782642,60.8762397 C172.782642,66.0395953 174.048827,70.1610843 176.580417,73.2391485 C179.112788,76.3179921 182.559843,77.8585826 186.810664,77.8585826 C191.246609,77.8585826 194.68429,76.3834497 197.235408,73.4324044 C199.785744,70.4829174 201.061303,66.2609042 201.061303,60.7655854 C201.061303,55.5297591 199.777152,51.4815201 197.208069,48.6232064 C194.637424,45.7664511 191.154437,44.3365147 186.755986,44.3365147 C182.615302,44.3365147 179.250264,45.8498313 176.663996,48.8725683 C174.076166,51.8968641 172.782642,55.8975684 172.782642,60.8762397 M186.866123,34.2685171 C192.262838,34.2685171 197.160421,35.3945434 201.560435,37.6434784 C205.958886,39.8924136 209.359075,43.0460656 211.762561,47.102097 C214.165268,51.159687 215.36662,55.751068 215.36662,60.8762397 C215.36662,66.2234999 214.210572,70.9076122 211.900819,74.9262394 C209.591065,78.9456459 206.190096,82.1180001 201.698692,84.4409646 C197.208069,86.7647083 192.207379,87.9258011 186.810664,87.9258011 C181.377236,87.9258011 176.497619,86.7647083 172.061674,84.4409646 C167.625729,82.1180001 164.252098,78.9456459 161.942345,74.9262394 C159.631811,70.9076122 158.477324,66.2234999 158.477324,60.8762397 C158.477324,55.6762595 159.696643,51.0576045 162.136842,47.0194959 C164.576261,42.9813874 167.97723,39.8479957 172.338969,37.6154251 C176.700709,35.384413 181.543614,34.2685171 186.866123,34.2685171" id="Fill-5" fill="#234858"></path>
                    <path d="M240.282243,60.8762397 C240.282243,66.0395953 241.548429,70.1610843 244.080017,73.2391485 C246.612389,76.3179921 250.003985,77.8585826 254.255586,77.8585826 C258.690751,77.8585826 262.183892,76.3834497 264.735009,73.4324044 C267.285346,70.4829174 268.560905,66.2609042 268.560905,60.7655854 C268.560905,55.5297591 267.276752,51.4815201 264.707671,48.6232064 C262.137024,45.7664511 258.654039,44.3365147 254.255586,44.3365147 C250.114902,44.3365147 246.749865,45.8498313 244.163597,48.8725683 C241.575767,51.8968641 240.282243,55.8975684 240.282243,60.8762397 M254.365724,34.2685171 C259.76244,34.2685171 264.660023,35.3945434 269.060035,37.6434784 C273.458488,39.8924136 276.858675,43.0460656 279.262163,47.102097 C281.664869,51.159687 282.866222,55.751068 282.866222,60.8762397 C282.866222,66.2234999 281.710955,70.9076122 279.40042,74.9262394 C277.090667,78.9456459 273.689697,82.1180001 269.198293,84.4409646 C264.707671,86.7647083 259.619495,87.9258011 254.22278,87.9258011 C248.789353,87.9258011 243.997219,86.7647083 239.561276,84.4409646 C235.125329,82.1180001 231.751699,78.9456459 229.441946,74.9262394 C227.131411,70.9076122 225.976926,66.2234999 225.976926,60.8762397 C225.976926,55.6762595 227.196244,51.0576045 229.636443,47.0194959 C232.075862,42.9813874 235.476831,39.8479957 239.83857,37.6154251 C244.20031,35.384413 249.043215,34.2685171 254.365724,34.2685171" id="Fill-7" fill="#234858"></path>
                    <path d="M67.1557905,25.1302715 C68.7320593,26.7131536 70.6395845,27.5049941 72.8735653,27.5049941 C75.0467361,27.5049941 76.9142546,26.7291342 78.476121,25.1766154 C78.506526,25.1470513 78.5313301,25.1142909 78.5601353,25.0847267 C80.0627916,23.5497865 80.8189205,21.7056211 80.8189205,19.5474361 C80.8189205,17.3165392 80.030786,15.4172405 78.4537172,13.8503391 C76.8766481,12.2826386 74.9859257,11.4979894 72.7815497,11.4979894 C70.5763736,11.4979894 68.6944527,12.266658 67.1325865,13.8039952 C65.5715202,15.3413325 64.7905871,17.1950864 64.7905871,19.3660559 C64.7905871,21.6185266 65.5739208,23.5346049 67.1397877,25.1134919 C67.1453887,25.1182861 67.1501895,25.1246783 67.1557905,25.1302715" id="Fill-9" fill="#234858"></path>
                    <path d="M373.365203,25.1302715 C374.941472,26.7131536 376.848997,27.5049941 379.082978,27.5049941 C381.256149,27.5049941 383.123668,26.7291342 384.685534,25.1766154 C384.715939,25.1470513 384.740743,25.1142909 384.769548,25.0847267 C386.272204,23.5497865 387.028333,21.7056211 387.028333,19.5474361 C387.028333,17.3165392 386.240199,15.4172405 384.66313,13.8503391 C383.086061,12.2826386 381.195339,11.4979894 378.990963,11.4979894 C376.785786,11.4979894 374.903866,12.266658 373.341999,13.8039952 C371.780933,15.3413325 371,17.1950864 371,19.3660559 C371,21.6185266 371.783334,23.5346049 373.349201,25.1134919 C373.354802,25.1182861 373.359602,25.1246783 373.365203,25.1302715" id="Fill-9-Copy" fill="#12B29F"></path>
                    <path d="M66.1450941,35.630223 L66.1450941,47.3882958 L66.1450941,66.0680256 L66.1450941,73.605652 L66.1450941,77.0969277 L66.1450941,86.7916192 L66.1450941,87.7003501 L74.4234351,87.7003501 L79.2386623,87.7003501 L79.2386623,77.2819529 L79.2386623,77.1055154 L79.2386623,66.2585156 L79.2386623,44.4146222 L79.2386623,35.3850841 C77.340655,34.5013355 75.1689118,34.0430665 72.7013445,34.0430665 C70.241666,34.0430665 68.062034,34.5817472 66.1450941,35.630223" id="Fill-11" fill="#234858"></path>
                    <path d="M372.354507,35.630223 L372.354507,47.3882958 L372.354507,66.0680256 L372.354507,73.605652 L372.354507,77.0969277 L372.354507,86.7916192 L372.354507,87.7003501 L380.632848,87.7003501 L385.448075,87.7003501 L385.448075,77.2819529 L385.448075,77.1055154 L385.448075,66.2585156 L385.448075,44.4146222 L385.448075,35.3850841 C383.550068,34.5013355 381.378325,34.0430665 378.910757,34.0430665 C376.451079,34.0430665 374.271447,34.5817472 372.354507,35.630223" id="Fill-11-Copy" fill="#12B29F"></path>
                </g>
            </g>
            <path d="M498.296,47.106125 L498.296,57.7114553 C496.988349,57.1714445 495.522695,56.717629 493.899,56.35 C492.167658,55.957998 490.32201,55.762 488.362,55.762 C483.72331,55.762 480.195345,57.2156521 477.778,60.123 C475.360655,63.0303479 474.152,67.1299735 474.152,72.422 C474.152,77.5180255 475.295322,81.5523185 477.582,84.525 C479.868678,87.4976815 483.723306,88.984 489.146,88.984 C491.171343,88.984 493.16399,88.788002 495.124,88.396 C496.270805,88.166639 497.328135,87.9037306 498.296,87.607272 L498.296,97.9670087 C497.585203,98.1480575 496.805537,98.3223877 495.957,98.49 C493.310987,99.0126693 490.583347,99.274 487.774,99.274 C483.396645,99.274 479.591016,98.60434 476.357,97.265 C473.122984,95.92566 470.444344,94.0636786 468.321,91.679 C466.197656,89.2943214 464.613339,86.4523498 463.568,83.153 C462.522661,79.8536502 462,76.2766859 462,72.422 C462,68.6326477 462.587994,65.0883498 463.764,61.789 C464.940006,58.4896502 466.622322,55.6313454 468.811,53.214 C470.999678,50.7966546 473.661984,48.9020069 476.798,47.53 C479.934016,46.1579931 483.46198,45.472 487.382,45.472 C491.181416,45.472 494.819394,46.0167041 498.296,47.106125 Z" id="Combined-Shape" fill="#12B29F" fill-rule="nonzero"></path>
            <rect id="Rectangle" fill="#12B29F" x="512" y="11" width="13" height="88"></rect>
        </g>
    </g>
</svg>